<?xml version="1.0" encoding="UTF-8" standalone="no"?>
<svg width="50px" height="50px" viewBox="0 0 50 50" version="1.1" xmlns="http://www.w3.org/2000/svg" xmlns:xlink="http://www.w3.org/1999/xlink">
    <!-- Generator: Sketch 40.1 (33804) - http://www.bohemiancoding.com/sketch -->
    <title>bluemix logo copy 2</title>
    <desc>Created with Sketch.</desc>
    <defs></defs>
    <g id="Page-1" stroke="none" stroke-width="1" fill="none" fill-rule="evenodd">
        <g id="bluemix-logo-copy-2" fill="#4178BE">
            <g id="Page-1-Copy-2" transform="translate(13.000000, 13.000000)">
                <polygon id="Fill-1" points="10.6153846 8.84615385 8.84615385 8.84615385 9.73076923 5.30769231 7.96153846 5.30769231 7.07692308 8.84615385 7.07692308 12.3846154 10.6153846 12.3846154"></polygon>
                <polygon id="Fill-2" points="15.9230769 8.84615385 14.1538462 8.84615385 15.0384615 5.30769231 13.2692308 5.30769231 12.3846154 8.84615385 12.3846154 12.3846154 15.9230769 12.3846154"></polygon>
                <path d="M0,-8.84615383e-05 L0,16.8076038 L0,17.6922192 L5.30769231,22.9999115 L6.19230769,22.9999115 L23,22.9999115 L23,-8.84615383e-05 L0,-8.84615383e-05 Z M1.76923077,1.76914231 L21.2307692,1.76914231 L21.2307692,21.2306808 L6.19230769,21.2306808 L6.19230769,16.8076038 L1.76923077,16.8076038 L1.76923077,1.76914231 Z" id="Fill-3"></path>
            </g>
        </g>
    </g>
</svg>