<?xml version="1.0" encoding="UTF-8" standalone="no"?>
<svg width="25px" height="25px" viewBox="0 0 25 25" version="1.1" xmlns="http://www.w3.org/2000/svg" xmlns:xlink="http://www.w3.org/1999/xlink">
    <!-- Generator: Sketch 40.1 (33804) - http://www.bohemiancoding.com/sketch -->
    <title>Logo</title>
    <desc>Created with Sketch.</desc>
    <defs>
        <polyline id="path-1" points="0 0.148529412 24.6713768 0.148529412 24.6713768 25 0 25"></polyline>
        <polygon id="path-3" points="0 0.148529412 24.6713768 0.148529412 24.6713768 25 0 25"></polygon>
        <polyline id="path-5" points="0 0.148529412 24.6713768 0.148529412 24.6713768 25 0 25"></polyline>
    </defs>
    <g id="Page-1" stroke="none" stroke-width="1" fill="none" fill-rule="evenodd">
        <g id="bluemix-logo" transform="translate(-12.000000, -13.000000)">
            <g id="Logo" transform="translate(12.000000, 13.000000)">
                <path d="M7.4373913,12.5759191 C7.4373913,13.4954044 7.61456522,14.3869485 7.96456522,15.2262868 C8.3026087,16.0369485 8.78630435,16.7652574 9.40297101,17.390625 C9.53811594,17.5277574 9.67833333,17.6586397 9.82326087,17.7829044 L9.82543478,7.36746324 C9.67978261,7.49209559 9.53884058,7.62334559 9.40297101,7.76121324 C8.78630435,8.38658088 8.3026087,9.11488971 7.96456522,9.92555147 C7.61456522,10.7648897 7.4373913,11.6564338 7.4373913,12.5759191" id="Fill-1" fill="#94A3AB"></path>
                <path d="M18.8926087,7.76121324 C18.2763043,7.13584559 17.5585507,6.64466912 16.7596377,6.30165441 C15.9324638,5.946875 15.0538406,5.76672794 14.1476812,5.76672794 C13.3574638,5.76672794 12.5878986,5.90386029 11.8556522,6.17444853 L20.7574638,11.3917279 C20.6705072,10.8891544 20.5281159,10.3990809 20.3310145,9.92555147 C19.992971,9.11488971 19.508913,8.38658088 18.8926087,7.76121324" id="Fill-3" fill="#00B29F"></path>
                <path d="M11.0305797,6.544375 C11.0291304,6.54511029 11.0273188,6.54621324 11.0258696,6.54694853 L14.2968841,12.2958456 L20.8523188,12.2958456 C20.8494203,12.2230515 20.8454348,12.1502574 20.8403623,12.0778309 L11.2276812,6.44363971 C11.1613768,6.47636029 11.0957971,6.50981618 11.0305797,6.544375" id="Fill-5" fill="#00B29F"></path>
                <path d="M20.8525362,12.8525735 L20.8525362,12.8525735 L14.2923913,12.8525735 L14.2923913,12.8514706 L11.0289855,18.6069853 L11.0297101,18.6069853 C11.0938406,18.6411765 11.1586957,18.6742647 11.223913,18.7066176 L20.8405797,13.0713235 C20.8456522,12.9985294 20.8496377,12.9257353 20.8525362,12.8525735" id="Fill-7" fill="#5AAAFA"></path>
                <path d="M16.7594928,18.8500368 C17.5584058,18.5070221 18.2761594,18.0162132 18.8924638,17.3904779 C19.5091304,16.7651103 19.9928261,16.0368015 20.3308696,15.2261397 C20.5286957,14.751875 20.671087,14.2606985 20.7576812,13.7570221 L11.8522464,18.9761397 C12.5855797,19.2474632 13.3562319,19.3849632 14.1475362,19.3849632 C15.0536957,19.3849632 15.9326812,19.2048162 16.7594928,18.8500368" id="Fill-9" fill="#5AAAFA"></path>
                <path d="M13.8188043,12.5741912 L13.8191667,12.5734559 L13.818442,12.5738235 L10.5572101,6.82198529 C10.5568478,6.82235294 10.5561232,6.82272059 10.5557609,6.82308824 C10.5325725,6.83779412 10.369529,6.94698529 10.369529,6.94735294 L10.3669928,18.2028676 C10.426413,18.2440441 10.486558,18.2844853 10.5474275,18.3238235 L10.5474275,18.3238235 L13.8188043,12.5741912 Z" id="Fill-11" fill="#94A3AB"></path>
                <polygon id="Fill-13" fill="#90908F" points="14.2923188 12.8505882 14.2923188 12.8513235 14.2926812 12.8509559"></polygon>
                <g id="Group-17">
                    <mask id="mask-2" fill="white">
                        <use xlink:href="#path-1"></use>
                    </mask>
                    <g id="Clip-16"></g>
                    <path d="M14.1477174,5.24165441 C17.856413,5.24165441 20.9125725,8.07584559 21.3277899,11.7258456 C21.3393841,11.8280515 21.3488043,11.9302574 21.3560507,12.0335662 C21.3560507,12.0343015 21.3560507,12.0354044 21.356413,12.0361397 L24.6643841,6.22216912 L21.208587,0.148272059 L14.2969928,0.148272059 L10.9770652,5.98319853 C11.0781522,5.93319853 11.1806884,5.88503676 11.2846739,5.83981618 C12.1625725,5.45488971 13.1306884,5.24165441 14.1477174,5.24165441" id="Fill-15" fill="#00B29F" mask="url(#mask-2)"></path>
                </g>
                <polygon id="Fill-18" fill="#90908F" points="11.1203261 19.4051838 11.1203261 19.4051838 10.989529 19.1746691 10.9891667 19.1746691"></polygon>
                <g id="Group-22">
                    <mask id="mask-4" fill="white">
                        <use xlink:href="#path-3"></use>
                    </mask>
                    <g id="Clip-21"></g>
                    <path d="M21.3573188,13.1006985 L21.3573188,13.1014338 C21.3497101,13.2095221 21.3399275,13.3165074 21.327971,13.423125 C20.9142029,17.0745956 17.8573188,19.9102574 14.1478986,19.9102574 C13.1294203,19.9102574 12.1602174,19.6962868 11.2815942,19.310625 C11.1830435,19.2676103 11.0855797,19.2220221 10.9895652,19.1745956 L14.304058,24.9999632 L21.2156522,24.9999632 L24.6714493,18.9264338 L21.3573188,13.1006985 Z" id="Fill-20" fill="#5AAAFA" mask="url(#mask-4)"></path>
                </g>
                <g id="Group-25">
                    <mask id="mask-6" fill="white">
                        <use xlink:href="#path-5"></use>
                    </mask>
                    <g id="Clip-24"></g>
                    <path d="M10.1090217,6.49253676 L3.45576087,6.49253676 L-3.62318841e-05,12.5660662 L3.45576087,18.6399632 L10.0811232,18.6399632 C10.0800362,18.6392279 10.0793116,18.6388603 10.078587,18.638125 C9.99199275,18.5781985 9.90684783,18.5168015 9.82315217,18.4531985 C8.06047101,17.1156985 6.9198913,14.9807721 6.9198913,12.5759926 C6.9198913,10.1697426 8.06155797,8.03408088 9.82568841,6.69658088 C9.91844203,6.62636029 10.0130072,6.55834559 10.1090217,6.49253676" id="Fill-23" fill="#94A3AB" mask="url(#mask-6)"></path>
                </g>
            </g>
        </g>
    </g>
</svg>