<?xml version="1.0" encoding="UTF-8" standalone="no"?>
<svg width="24px" height="24px" viewBox="0 0 24 24" version="1.1" xmlns="http://www.w3.org/2000/svg" xmlns:xlink="http://www.w3.org/1999/xlink">
    <!-- Generator: Sketch 40.1 (33804) - http://www.bohemiancoding.com/sketch -->
    <title>Page 1</title>
    <desc>Created with Sketch.</desc>
    <defs></defs>
    <g id="Page-1" stroke="none" stroke-width="1" fill="none" fill-rule="evenodd">
        <g id="bluemix-logo-copy-6" transform="translate(-13.000000, -13.000000)" fill="#FFFFFF">
            <g id="Page-1" transform="translate(13.000000, 13.000000)">
                <path d="M7.23529412,11.9294118 C7.23529412,12.8117647 7.41176471,13.6588235 7.76470588,14.4705882 C8.08235294,15.2470588 8.57647059,15.9529412 9.17647059,16.5529412 C9.31764706,16.6941176 9.45882353,16.8 9.6,16.9411765 L9.6,6.95294118 C9.45882353,7.05882353 9.31764706,7.2 9.17647059,7.34117647 C8.57647059,7.94117647 8.11764706,8.64705882 7.76470588,9.42352941 C7.41176471,10.2 7.23529412,11.0470588 7.23529412,11.9294118" id="Fill-1"></path>
                <path d="M18.3882353,7.30588235 C17.7882353,6.70588235 17.0823529,6.24705882 16.3058824,5.89411765 C15.4941176,5.54117647 14.6470588,5.36470588 13.7647059,5.36470588 C12.9882353,5.36470588 12.2470588,5.50588235 11.5411765,5.75294118 L20.2235294,10.7647059 C20.1529412,10.2705882 20.0117647,9.81176471 19.8,9.35294118 C19.4823529,8.61176471 18.9882353,7.90588235 18.3882353,7.30588235" id="Fill-3"></path>
                <path d="M10.7294118,6.14117647 L10.7294118,6.14117647 L13.9058824,11.6470588 L20.2941176,11.6470588 L20.2941176,11.4352941 L10.9411765,6.03529412 C10.8705882,6.07058824 10.8,6.10588235 10.7294118,6.14117647" id="Fill-5"></path>
                <path d="M20.3294118,12.2117647 L20.3294118,12.2117647 L13.9411765,12.2117647 L10.7647059,17.7529412 C10.8352941,17.7882353 10.9058824,17.8235294 10.9411765,17.8588235 L20.2941176,12.4588235 C20.2941176,12.3529412 20.2941176,12.2823529 20.3294118,12.2117647" id="Fill-7"></path>
                <path d="M16.3411765,17.9647059 C17.1176471,17.6470588 17.8235294,17.1529412 18.4235294,16.5529412 C19.0235294,15.9529412 19.4823529,15.2470588 19.8352941,14.4705882 C20.0117647,14.0117647 20.1529412,13.5529412 20.2588235,13.0588235 L11.5411765,18.0705882 C12.2470588,18.3176471 13.0235294,18.4588235 13.7647059,18.4588235 C14.6470588,18.4588235 15.5294118,18.2823529 16.3411765,17.9647059" id="Fill-9"></path>
                <path d="M13.4470588,11.9294118 L13.4470588,11.9294118 L10.2705882,6.42352941 C10.2352941,6.42352941 10.0941176,6.52941176 10.0941176,6.52941176 L10.0941176,17.3294118 C10.1647059,17.3647059 10.2,17.4 10.2705882,17.4352941 L13.4470588,11.9294118 Z" id="Fill-11"></path>
                <path d="M13.9058824,12.1764706 L13.9058824,12.2264706 L13.9058824,12.1764706 Z" id="Fill-13"></path>
                <path d="M13.7647059,4.90588235 C17.3647059,4.90588235 20.3647059,7.62352941 20.7529412,11.1176471 C20.7529412,11.2235294 20.7882353,11.3294118 20.7882353,11.4 L24,5.82352941 L20.6470588,0 L13.9411765,0 L10.6941176,5.61176471 C10.8,5.57647059 10.9058824,5.50588235 10.9764706,5.47058824 C11.8588235,5.08235294 12.7764706,4.90588235 13.7647059,4.90588235" id="Fill-15"></path>
                <polygon id="Fill-17" points="10.7647059 18.2470588 10.7647059 18.2470588 10.7647059 18.5970588"></polygon>
                <path d="M20.7882353,12.4235294 L20.7882353,12.4235294 C20.7882353,12.5294118 20.7882353,12.6352941 20.7529412,12.7411765 C20.3647059,16.2352941 17.4,18.9882353 13.7647059,18.9882353 C12.7764706,18.9882353 11.8235294,18.7764706 10.9764706,18.4235294 C10.8705882,18.3882353 10.8,18.3529412 10.6941176,18.2823529 L13.9058824,23.8588235 L20.6470588,23.8588235 L24,18.0352941 L20.7882353,12.4235294 Z" id="Fill-19"></path>
                <path d="M9.84705882,6.10588235 L3.35294118,6.10588235 L0,11.9294118 L3.35294118,17.7529412 L9.81176471,17.7529412 C9.74117647,17.6823529 9.63529412,17.6470588 9.56470588,17.5764706 C7.83529412,16.3058824 6.74117647,14.2588235 6.74117647,11.9294118 C6.74117647,9.63529412 7.87058824,7.55294118 9.56470588,6.28235294 C9.67058824,6.21176471 9.74117647,6.14117647 9.84705882,6.10588235" id="Fill-21"></path>
            </g>
        </g>
    </g>
</svg>