<?xml version="1.0" encoding="UTF-8" standalone="no"?>
<svg width="50px" height="50px" viewBox="0 0 50 50" version="1.1" xmlns="http://www.w3.org/2000/svg" xmlns:xlink="http://www.w3.org/1999/xlink">
    <!-- Generator: Sketch 40.1 (33804) - http://www.bohemiancoding.com/sketch -->
    <title>bluemix logo copy 4</title>
    <desc>Created with Sketch.</desc>
    <defs></defs>
    <g id="Page-1" stroke="none" stroke-width="1" fill="none" fill-rule="evenodd">
        <g id="bluemix-logo-copy-4" fill="#8C9BA5">
            <g id="search_24" transform="translate(14.000000, 14.000000)">
                <path d="M8,2 C11.309,2 14,4.691 14,8 C14,11.309 11.309,14 8,14 C4.691,14 2,11.309 2,8 C2,4.691 4.691,2 8,2 L8,2 Z M8,0 C3.582,0 0,3.582 0,8 C0,12.417 3.582,16 8,16 C12.418,16 16,12.417 16,8 C16,3.582 12.418,0 8,0 L8,0 L8,0 Z" id="Shape"></path>
                <rect id="Rectangle-path" transform="translate(17.757165, 17.585639) rotate(-45.000000) translate(-17.757165, -17.585639) " x="15.635685" y="14.0501733" width="4.24295931" height="7.07093219"></rect>
            </g>
        </g>
    </g>
</svg>