<?xml version="1.0" encoding="UTF-8" standalone="no"?>
<svg width="50px" height="50px" viewBox="0 0 50 50" version="1.1" xmlns="http://www.w3.org/2000/svg" xmlns:xlink="http://www.w3.org/1999/xlink">
    <!-- Generator: Sketch 40.1 (33804) - http://www.bohemiancoding.com/sketch -->
    <title>bluemix logo copy 5</title>
    <desc>Created with Sketch.</desc>
    <defs></defs>
    <g id="Page-1" stroke="none" stroke-width="1" fill="none" fill-rule="evenodd">
        <g id="bluemix-logo-copy-5" fill="#FFFFFF">
            <g id="Page-1" transform="translate(14.000000, 13.000000)">
                <polygon id="Fill-1" points="17.2099715 15.4170102 17.2099715 21.8339593 2.15283035 21.8339593 2.15283035 15.4170102 -6.14117653e-05 15.4170102 -6.14117653e-05 23.9734169 19.3626586 23.9734169 19.3626586 15.4170102"></polygon>
                <path d="M13.9550866,0.000101694915 L12.2277784,1.27657627 L18.6516536,9.85779661 L20.3789619,8.58132203 L13.9550866,0.000101694915 Z M8.61553835,5.05922034 L16.8868842,11.9032881 L18.2643501,10.2596949 L9.99320894,3.41562712 L8.61553835,5.05922034 Z M5.91546776,9.81549153 L15.6731831,14.330339 L16.5818725,12.3916271 L6.82415718,7.87637288 L5.91546776,9.81549153 Z M4.52162541,14.8266102 L15.0555854,17.0264746 L15.4981595,14.9331864 L4.96440424,12.7335254 L4.52162541,14.8266102 Z M4.30791247,19.6949492 L15.0717572,19.6949492 L15.0717572,17.5561017 L4.30791247,17.5561017 L4.30791247,19.6949492 Z" id="Fill-2"></path>
            </g>
        </g>
    </g>
</svg>